<svg width="20" height="20" version="1.1" viewBox="0 0 5.2917 5.2917" xmlns="http://www.w3.org/2000/svg">
 <g transform="translate(0 -291.71)">
  <path d="m3.6561 291.71c-0.22291-8e-3 -0.42974 0.0737-0.59841 0.24237-0.10258 0.10258-0.22499 0.26436-0.31988 0.43976-0.094888 0.17541-0.17036 0.36128-0.13333 0.53485l5.16e-4 5.2e-4c0.040039 0.18465 0.14736 0.36223 0.27699 0.53795l-1.5632 1.5637-0.57206 0.57206-0.32401 0.32349-0.23203 0.23203 0.46457 0.46457 0.16123-0.16123 0.54105 0.54054 0.46457-0.46509-0.54054-0.54054 0.10749-0.10748 0.28164 0.28215 0.46457-0.46457-0.28215-0.28164 1.4883-1.4883c0.086141 0.0631 0.17248 0.12513 0.26562 0.17053 0.18792 0.0921 0.36881 0.13484 0.54002 0.11989 0.06739-6e-3 0.12366-0.0331 0.18759-0.0687 0.063929-0.0356 0.13126-0.0809 0.19844-0.13022 0.13435-0.0986 0.26502-0.21077 0.34158-0.28732 0.19562-0.19562 0.26673-0.45529 0.20516-0.73484-0.060332-0.27719-0.22238-0.54278-0.47542-0.79582-0.22792-0.22792-0.46783-0.38326-0.72089-0.45992-0.077053-0.0232-0.15307-0.036-0.22738-0.0388zm0.19947 0.68523c0.31081 0 0.56069 0.24783 0.56069 0.55863-2.6e-6 0.31081-0.24988 0.56068-0.56069 0.56068-0.31081 0-0.55862-0.24987-0.55862-0.56068-6.8e-6 -0.3108 0.24781-0.55863 0.55862-0.55863z" color="#000000" color-rendering="auto" dominant-baseline="auto" fill="black" image-rendering="auto" shape-rendering="auto" solid-color="#000000" style="font-feature-settings:normal;font-variant-alternates:normal;font-variant-caps:normal;font-variant-ligatures:normal;font-variant-numeric:normal;font-variant-position:normal;isolation:auto;mix-blend-mode:normal;paint-order:stroke fill markers;shape-padding:0;text-decoration-color:#000000;text-decoration-line:none;text-decoration-style:solid;text-indent:0;text-orientation:mixed;text-transform:none;white-space:normal"/>
 </g>
 </svg>
