<svg width="16" height="16" viewBox="0 0 16 16" xmlns="http://www.w3.org/2000/svg"><title>16-ym</title><g fill="none" fill-rule="evenodd"><path d="M13.941 6.656H3.151C2.518 6.656 2 7.174 2 7.807v6.963c0 .633.518 1.151 1.15 1.151h10.791V6.656z" fill="#FAC514"/><path d="M2 14.77V7.807c0-.633.518-1.151 1.15-1.151h8.896v5.558l-8.773 2.854L2 14.77z" fill="#D7AB05"/><path d="M10.256 0v10.168L2.99 15.119 2 14.554V7.789c0-.881.074-1.441 1.9-2.804C5.41 3.856 10.256 0 10.256 0" fill="#FAC514"/><path d="M7.46 6.323c.395-.472.973-.638 1.29-.372.319.266.255.865-.14 1.337-.397.472-.975.638-1.292.372-.318-.267-.255-.865.141-1.337" fill="#020202"/></g></svg>